<svg xmlns="http://www.w3.org/2000/svg" viewBox="0 0 500 500"><g id="freepik--Calendar--inject-7"><rect x="117.99" y="116.01" width="252.15" height="167.53" rx="11.66" style="fill:#FFF6C3;stroke:#263238;stroke-linecap:round;stroke-miterlimit:10"></rect><rect x="117.99" y="116.01" width="252.15" height="167.53" rx="11.66" style="fill:#FFF6C3;stroke:#263238;stroke-linecap:round;stroke-miterlimit:10;opacity:0.7000000000000001"></rect><rect x="194.84" y="209.67" width="29.5" height="16.55" style="fill:#fff"></rect><rect x="194.84" y="229.21" width="29.5" height="16.55" style="fill:#fff"></rect><rect x="227.34" y="209.67" width="29.5" height="16.55" style="fill:#fff"></rect><rect x="259.85" y="190.12" width="29.5" height="16.55" style="fill:#fff"></rect><rect x="259.85" y="170.57" width="29.5" height="16.55" style="fill:#fff"></rect><rect x="259.85" y="134.44" width="29.5" height="13.58" style="fill:#263238"></rect><rect x="227.34" y="134.44" width="29.5" height="13.58" style="fill:#263238"></rect><rect x="227.34" y="229.21" width="29.5" height="16.55" style="fill:#fff"></rect><rect x="227.34" y="151.02" width="29.5" height="16.55" style="fill:#fff"></rect><rect x="227.34" y="170.57" width="29.5" height="16.55" style="fill:#fff"></rect><rect x="227.34" y="190.12" width="29.5" height="16.55" style="fill:#fff"></rect><rect x="259.85" y="229.21" width="29.5" height="16.55" style="fill:#fff"></rect><rect x="127.88" y="151.02" width="31.45" height="16.55" style="fill:#fff"></rect><rect x="127.88" y="190.12" width="31.45" height="16.55" style="fill:#fff"></rect><rect x="127.88" y="209.67" width="31.45" height="16.55" style="fill:#fff"></rect><rect x="127.88" y="170.57" width="31.45" height="16.55" style="fill:#fff"></rect><rect x="324.86" y="134.44" width="31.45" height="13.58" style="fill:#263238"></rect><rect x="127.88" y="229.21" width="31.45" height="16.55" style="fill:#fff"></rect><rect x="292.35" y="151.02" width="29.5" height="16.55" style="fill:#fff"></rect><rect x="259.85" y="209.67" width="29.5" height="16.55" style="fill:#fff"></rect><rect x="292.35" y="209.67" width="29.5" height="16.55" style="fill:#fff"></rect><rect x="292.35" y="170.57" width="29.5" height="16.55" style="fill:#fff"></rect><rect x="292.35" y="190.12" width="29.5" height="16.55" style="fill:#fff"></rect><rect x="292.35" y="229.21" width="29.5" height="16.55" style="fill:#fff"></rect><rect x="259.85" y="151.02" width="29.5" height="16.55" style="fill:#fff"></rect><rect x="324.86" y="229.21" width="31.45" height="16.55" style="fill:#fff"></rect><rect x="292.35" y="134.44" width="29.5" height="13.58" style="fill:#263238"></rect><rect x="324.86" y="209.67" width="31.45" height="16.55" style="fill:#fff"></rect><rect x="292.35" y="248.76" width="29.5" height="17.49" style="fill:#fff"></rect><rect x="324.86" y="190.12" width="31.45" height="16.55" style="fill:#fff"></rect><rect x="227.34" y="248.76" width="29.5" height="17.49" style="fill:#fff"></rect><rect x="259.85" y="248.76" width="29.5" height="17.49" style="fill:#fff"></rect><rect x="324.86" y="170.57" width="31.45" height="16.55" style="fill:#fff"></rect><rect x="324.86" y="248.76" width="31.45" height="17.49" style="fill:#fff"></rect><rect x="127.88" y="248.76" width="31.45" height="17.49" style="fill:#fff"></rect><rect x="324.86" y="151.02" width="31.45" height="16.55" style="fill:#fff"></rect><rect x="127.88" y="134.44" width="31.45" height="13.58" style="fill:#263238"></rect><rect x="162.33" y="134.44" width="29.5" height="13.58" style="fill:#263238"></rect><rect x="162.33" y="209.67" width="29.5" height="16.55" style="fill:#fff"></rect><rect x="194.84" y="134.44" width="29.5" height="13.58" style="fill:#263238"></rect><rect x="194.84" y="170.57" width="29.5" height="16.55" style="fill:#fff"></rect><rect x="162.33" y="229.21" width="29.5" height="16.55" style="fill:#fff"></rect><rect x="194.84" y="151.02" width="29.5" height="16.55" style="fill:#fff"></rect><rect x="162.33" y="151.02" width="29.5" height="16.55" style="fill:#fff"></rect><rect x="194.84" y="190.12" width="29.5" height="16.55" style="fill:#fff"></rect><rect x="162.33" y="190.12" width="29.5" height="16.55" style="fill:#fff"></rect><rect x="162.33" y="248.76" width="29.5" height="17.49" style="fill:#fff"></rect><rect x="162.33" y="170.57" width="29.5" height="16.55" style="fill:#fff"></rect><rect x="194.84" y="248.76" width="29.5" height="17.49" style="fill:#fff"></rect><circle cx="141.76" cy="121.06" r="4.25" style="fill:#fff;stroke:#263238;stroke-linecap:round;stroke-miterlimit:10"></circle><path d="M160.4,121.06a4.26,4.26,0,1,0-4.25,4.25A4.25,4.25,0,0,0,160.4,121.06Z" style="fill:#fff;stroke:#263238;stroke-linecap:round;stroke-miterlimit:10"></path><path d="M141.84,123.83h0a2.23,2.23,0,0,1-2.23-2.23V106.52a2.23,2.23,0,0,1,2.23-2.24h0a2.24,2.24,0,0,1,2.24,2.24V121.6A2.23,2.23,0,0,1,141.84,123.83Z" style="fill:#fff;stroke:#263238;stroke-linecap:round;stroke-miterlimit:10"></path><path d="M156.36,123.83h0a2.23,2.23,0,0,1-2.23-2.23V106.52a2.23,2.23,0,0,1,2.23-2.24h0a2.24,2.24,0,0,1,2.24,2.24V121.6A2.23,2.23,0,0,1,156.36,123.83Z" style="fill:#fff;stroke:#263238;stroke-linecap:round;stroke-miterlimit:10"></path><path d="M337.92,121.06a4.26,4.26,0,1,0-4.25,4.25A4.25,4.25,0,0,0,337.92,121.06Z" style="fill:#fff;stroke:#263238;stroke-linecap:round;stroke-miterlimit:10"></path><circle cx="348.05" cy="121.06" r="4.25" style="fill:#fff;stroke:#263238;stroke-linecap:round;stroke-miterlimit:10"></circle><path d="M333.74,123.83h0a2.23,2.23,0,0,1-2.23-2.23V106.52a2.23,2.23,0,0,1,2.23-2.24h0a2.24,2.24,0,0,1,2.24,2.24V121.6A2.23,2.23,0,0,1,333.74,123.83Z" style="fill:#fff;stroke:#263238;stroke-linecap:round;stroke-miterlimit:10"></path><path d="M348.27,123.83h0A2.23,2.23,0,0,1,346,121.6V106.52a2.24,2.24,0,0,1,2.24-2.24h0a2.23,2.23,0,0,1,2.23,2.24V121.6A2.23,2.23,0,0,1,348.27,123.83Z" style="fill:#fff;stroke:#263238;stroke-linecap:round;stroke-miterlimit:10"></path><circle cx="237.72" cy="121.06" r="4.25" style="fill:#fff;stroke:#263238;stroke-linecap:round;stroke-miterlimit:10"></circle><circle cx="252.1" cy="121.06" r="4.25" style="fill:#fff;stroke:#263238;stroke-linecap:round;stroke-miterlimit:10"></circle><path d="M237.79,123.83h0a2.23,2.23,0,0,1-2.23-2.23V106.52a2.23,2.23,0,0,1,2.23-2.24h0a2.24,2.24,0,0,1,2.24,2.24V121.6A2.23,2.23,0,0,1,237.79,123.83Z" style="fill:#fff;stroke:#263238;stroke-linecap:round;stroke-miterlimit:10"></path><path d="M252.31,123.83h0a2.23,2.23,0,0,1-2.23-2.23V106.52a2.23,2.23,0,0,1,2.23-2.24h0a2.24,2.24,0,0,1,2.24,2.24V121.6A2.23,2.23,0,0,1,252.31,123.83Z" style="fill:#fff;stroke:#263238;stroke-linecap:round;stroke-miterlimit:10"></path><line x1="148.3" y1="172.01" x2="133.42" y2="185.13" style="fill:none;stroke:#263238;stroke-linecap:round;stroke-linejoin:round;stroke-width:2px"></line><line x1="138" y1="172.01" x2="148.3" y2="184.25" style="fill:none;stroke:#263238;stroke-linecap:round;stroke-linejoin:round;stroke-width:2px"></line><line x1="312.99" y1="153.35" x2="298.11" y2="166.46" style="fill:none;stroke:#263238;stroke-linecap:round;stroke-linejoin:round;stroke-width:2px"></line><line x1="302.69" y1="153.35" x2="312.99" y2="165.59" style="fill:none;stroke:#263238;stroke-linecap:round;stroke-linejoin:round;stroke-width:2px"></line><line x1="215.48" y1="153.35" x2="200.59" y2="166.46" style="fill:none;stroke:#263238;stroke-linecap:round;stroke-linejoin:round;stroke-width:2px"></line><line x1="205.17" y1="153.35" x2="215.48" y2="165.59" style="fill:none;stroke:#263238;stroke-linecap:round;stroke-linejoin:round;stroke-width:2px"></line><line x1="347.03" y1="152.98" x2="332.14" y2="166.1" style="fill:none;stroke:#263238;stroke-linecap:round;stroke-linejoin:round;stroke-width:2px"></line><line x1="336.72" y1="152.98" x2="347.03" y2="165.22" style="fill:none;stroke:#263238;stroke-linecap:round;stroke-linejoin:round;stroke-width:2px"></line></g></svg>
