<svg xmlns="http://www.w3.org/2000/svg" viewBox="0 0 500 500"><g id="freepik--background-complete--inject-26"><path d="M424.92,50.33a9.94,9.94,0,0,0-8.52,17.15,10.24,10.24,0,0,0,12,1,10.39,10.39,0,0,0-5.45,6.1c-1.3,4,.48,9,4.4,10.45s9-2.32,8-6.38c1.46,5.1,8.58,7.51,12.84,4.34s4-10.68-.47-13.55c3.56-2.8,7.23-5.74,9.28-9.79s2-9.53-1.36-12.58c-2.88-2.62-7.38-2.72-11-1.29s-6.55,4.14-9.39,6.79a6.8,6.8,0,1,0-13-3.76" style="fill:#f5f5f5"></path><path d="M462.16,119a10.59,10.59,0,0,0-2.64-5.2c-1.4-1.39-3.69-4-7-3.46h0a5.1,5.1,0,0,0-4.46,3.61c-.71,2.61.62,5.45,2.71,7.16-3.71-.38-7.1,3.36-6.77,7.07s3.84,6.71,7.56,6.92a10.45,10.45,0,0,0,9.23-5.28A14.85,14.85,0,0,0,462.16,119Z" style="fill:#f5f5f5"></path><path d="M79.51,54.45C76.26,49.15,68,47.83,63.3,51.84s-4.8,12.34-.12,16.42c-4.76-1.23-9.85,3.08-10.12,8s3.6,9.47,8.33,10.79,10-.23,13.81-3.27C75.37,89.46,81,94.19,86.69,94S97.46,89.31,99,83.82s-.2-11.6-3.83-16A10.23,10.23,0,0,0,105.62,52.5c4.86,3.28,12.39-.25,13.74-6s-2.87-11.84-8.5-13.49-12,.7-15.94,5c.12-4.7-4.52-8.74-9.23-8.59s-8.86,3.89-10.19,8.41S75.38,47.4,78,51.3" style="fill:#f5f5f5"></path><path d="M197.66,361.82c3.78,1.95,10.58-1.73,10.58-1.73s-2,5.65,4.58,10.17a13.84,13.84,0,0,0,13.06,1.48s-2.12,2.91.56,6.86,4.61,2.93,5.34,2.37l2.91-2.24s4.42,4.2,7.7,3c5.86,3.6,19.18,9.92,22.68-4.26,0,0,9.34,4.75,11.28-1.18,0,0,21.91,12.83,22.38-7,0,0,8,1.14,10.54-3.81,0,0,14.16,2.31,17.15-6.29,0,0,10.52-.59,9.44-7.36,0,0,6.6.76,7-3.72l4-1.59s2.33,4.42,3.1.59.92-8.64-8-4.12c0,0-7.28-3.64-13.41-1.84a8.92,8.92,0,0,0-6.35,7.94s-11-3.05-12.4,7.34c0,0-3.3-3.07-11.83-3.28s-5.11,6.67-5.11,6.67-4.8-4-11.76-.31c0,0-2.24-9-12.36-7.74-8.71,1.06-8.11,8.9-7.77,11.06-.32-.9-1.68-2.51-7.27-1.73-4.28.59-3,3.47-3,3.47L248.9,367c-.67-2.21-2.85-7.24-8.91-6.54-7.72.88-7.29,3-7.29,3s-1.87-5.61-6.75-5.57c0,0,.07-8.94-7.09-8.75,0,0,2-6.41-5.12-7.16L197.1,357.26S193.88,359.86,197.66,361.82Z" style="fill:#f5f5f5"></path><path d="M177.66,283.91s6,3.5,8-.89-1-8.13-3.43-7.62c0,0,.14-3.8-2.45-5.12l-2.6-1.32a5.24,5.24,0,0,0,2.2-5.92s8.18-3.2,7-9.1a6.57,6.57,0,0,0-6.89-5.49s2.34-6.64-1.61-9.45c-2.46-1.75-9.25-1.77-14-1.54a11.75,11.75,0,0,0-9.93,6.17c-1.91,3.71-.91,6.89,1.42,11l3.3,20.84L157.07,283,169.46,280l4.19,7.93Z" style="fill:#ebebeb"></path><path d="M177.66,283.91s6,3.5,8-.89-1-8.13-3.43-7.62c0,0,.14-3.8-2.45-5.12l-2.6-1.32a5.24,5.24,0,0,0,2.2-5.92s8.18-3.2,7-9.1a6.57,6.57,0,0,0-6.89-5.49s2.34-6.64-1.61-9.45c-2.46-1.75-9.25-1.77-14-1.54a11.75,11.75,0,0,0-9.93,6.17c-1.91,3.71-.91,6.89,1.42,11l3.3,20.84L157.07,283,169.46,280l4.19,7.93Z" style="fill:#ebebeb"></path><path d="M268.65,351.78c-3.63.44-5.64,2.07-6.73,4a10.16,10.16,0,0,1,5.43,4.66,7.73,7.73,0,0,1,11,3.33,14.3,14.3,0,0,1,15.61-.32,5.87,5.87,0,0,1,.24-4.4,3.74,3.74,0,0,1,3.72-2,2.75,2.75,0,0,1,2.21,3.32,17.58,17.58,0,0,1,14,0,6.82,6.82,0,0,1,9.93-7.9,9.1,9.1,0,0,1,15.71-5.86,21.72,21.72,0,0,1,7.93-4.95l-1.29-.3a17.75,17.75,0,0,0-4.51,1.7s-7.28-3.64-13.41-1.84a8.92,8.92,0,0,0-6.35,7.94s-11-3.05-12.4,7.34c0,0-3.3-3.07-11.83-3.28s-5.11,6.67-5.11,6.67-4.8-4-11.76-.31C281,359.52,278.77,350.54,268.65,351.78Z" style="fill:#ebebeb"></path><path d="M214.3,344.41c.12-.66.13-8.13-4.57-12.18s-11-3.55-11-3.55,4-5.79-4.53-6L179,327.9s-6.76,3.76-1.29,7.09c0,0-2.65,9.29,2.19,11.44s11.32,1.23,11.32,1.23-5.21,5.23-2,7.42,9.17,2.24,9.17,2.24Z" style="fill:#f5f5f5"></path><path d="M194.54,321.34s4.27.57,5.06-4.82-4-11.13-7.23-11.26l-.52-.42s.35-8.15-7.43-8.09l-5.4,1s-2.7-4.25-7.15-2.23l-2,12.77,4.06-1.16s-3.17,5,.66,7.73c0,0-3.68,5.64-1.33,9.63S177,328.9,177,328.9l16.32-3.1Z" style="fill:#f5f5f5"></path><path d="M171.9,310.18s5.16,1.55,7.1-4.13c0,0,4.79-.27,5-5.88s-1.73-6.76-1.73-6.76,4.37-3.17,2.52-8-8.3-3.8-10.2-2.94a8.52,8.52,0,0,0-4.72,7.77,28.53,28.53,0,0,0,1.22,7s-2.08-3.32-5.8-.74-3.87,6.84-2,9.25c1.07,1.35,4.51,1,4.51,1S169.24,310.08,171.9,310.18Z" style="fill:#f5f5f5"></path><path d="M170.53,282.89s-.9,13-9.69,12.19c0,0-6-.4-4.34-6.94a3.57,3.57,0,0,1-2.16-4.4s-4.08.84-5.24-4.71,2.46-8.26,2.46-8.26-2.9.08-5-3.87a5.73,5.73,0,0,1-.49-4,7.69,7.69,0,0,1,4.49-5.51l4.26-1.81s5.18-11.53,16.07-3.38c7.75,5.81.84,13.31.84,13.31s6.27-4.35,8.58,2.59S178.14,283,170.53,282.89Z" style="fill:#f5f5f5"></path><path d="M176.05,232.59s16.33,5.84,18.57-11.86c0,0,8.47-3.92.8-12.78l-7.68-13.27s-5.62-.71-9.68,5.41A20.21,20.21,0,0,0,174.5,212s-8.65-1.47-11.06,7.31,2.37,12.38,2.37,12.38a21.22,21.22,0,0,0-4.95,15.7c1.07,9.22,5.53,13.66,11.09,4.81S177.05,235.94,176.05,232.59Z" style="fill:#f5f5f5"></path><path d="M192.05,209.33s-8.61,2.08-7.85-5.63,4.05-8.86,4.05-8.86-.74-4.63,2-6.56c0,0-1.61-5,5.17-11.82s17.07-1.76,17.07-1.76l.68,9.41a9.12,9.12,0,0,1-2,6.55,4.89,4.89,0,0,1-2.91,1.85s-.32,8.35-2.73,11.33c-3.79,4.69-10.76,4.09-10.76,4.09Z" style="fill:#f5f5f5"></path><path d="M195.4,176.46c-4.7,4.7-5.37,8.55-5.34,10.48a8.55,8.55,0,0,1,8.88-2.69c3.21,1,3.36,3.5,3.57,6.85,1.48-1.83,5.46-.6,5.49,4,.16-1.5.2-2.56.2-2.56a4.89,4.89,0,0,0,2.91-1.85,9.12,9.12,0,0,0,2-6.55l-.06-.78a5.2,5.2,0,0,1-1-2.44c-.21-1.7.5-3.43.42-5.12v-.22a4.27,4.27,0,0,0-.13-.77l-.17-.19C210.66,173.9,201.57,170.29,195.4,176.46Z" style="fill:#ebebeb"></path><path d="M294.12,174l-2.4-.46s-1.29,3.16-3.55,1.23-1.2-3.13-1.2-3.13l-2.93-.55s.17,4.21-6.73,2-3.75-5-3.75-5l-2.54-.47s-1.39,3-5.9,2-3-3.71-3-3.71-3.23.27-2.57-1.75a3.94,3.94,0,0,1,1.94-2.53s-5.17-.84-3-4.22S265,155,265,155s6.14-4.76,7.73,1.46c0,0,5.63-1.33,4.49,3.61a15.91,15.91,0,0,1,9.43.14c4.5,1.73,2.22,4.32,2.22,4.32s3,1.06,1,3.22c0,0,1.93.74,2.24,2.06l3.1,1.08s6.72.26,4.67,3.78S293.73,174.52,294.12,174Z" style="fill:#f5f5f5"></path><path d="M261.47,161.65a3.94,3.94,0,0,0-1.94,2.53,1.29,1.29,0,0,0-.08.44L267,165.8c-.1-4.34,2.3-5.05-4.49-7.85.12,0,2.64-2,2.77-2,1.95.14,3.84,1.83,3.68,3.78a4.66,4.66,0,0,1,7.64,2.82,4.4,4.4,0,0,1,7.66,4A4.33,4.33,0,0,1,290,170.8a7.51,7.51,0,0,1,2.75.48,3.09,3.09,0,0,1,1.86,2,2.16,2.16,0,0,1-.15,1.44c1,1.11,3.87,2.74,5.46,0,2-3.52-4.67-3.78-4.67-3.78l-3.1-1.08c-.31-1.32-2.24-2.06-2.24-2.06,1.92-2.16-1-3.22-1-3.22s2.28-2.59-2.22-4.32a15.91,15.91,0,0,0-9.43-.14c1.14-4.94-4.49-3.61-4.49-3.61C271.12,150.25,265,155,265,155s-4.38-.95-6.53,2.42S261.47,161.65,261.47,161.65Z" style="fill:#ebebeb"></path><path d="M236.07,167.12a12.3,12.3,0,0,0,11.92-.55c-.84,1.4,2.11,4,4,4.64a6.93,6.93,0,0,0,5.71-.84,5.65,5.65,0,0,0,2.51-4.09,8.59,8.59,0,0,0,6.08.36A5.2,5.2,0,0,0,270,163a4,4,0,0,0-2.52-4.06,5,5,0,0,0-4.81.23c.26-2.08-1.62-4.17-4.29-4.76s-5.83.4-7.2,2.24a5.35,5.35,0,0,0-4.1-1.31,4.9,4.9,0,0,0-3.68,2c-1.71-2.13-5.22-3.36-8.56-3s-6.88,1.42-10.66,7.92l-3.67,2.58Z" style="fill:#f5f5f5"></path><path d="M251.37,146.24a1.1,1.1,0,0,1,.85-1.1,2.91,2.91,0,0,1,1.52.07,11.27,11.27,0,0,1,5.13,2.88c.44.43.86,1.07.53,1.61s-1,.53-1.59.47a9.18,9.18,0,0,1-6.49-3.81" style="fill:#f5f5f5"></path><path d="M257.53,183.51a1,1,0,0,1-1.12-1.07,2,2,0,0,1,.87-1.55,1.5,1.5,0,0,1,1.82-.14,1.48,1.48,0,0,1,0,1.89,2.9,2.9,0,0,1-1.77,1" style="fill:#f5f5f5"></path><path d="M208.46,153.21a2.73,2.73,0,0,1-2.27-.49,2.18,2.18,0,0,1-.72-2.22,2.88,2.88,0,0,1,1.91-1.78,4.72,4.72,0,0,1,3.37.11,1.43,1.43,0,0,1,.85.8,1.62,1.62,0,0,1-.24,1.16,4.89,4.89,0,0,1-2.82,2.32" style="fill:#f5f5f5"></path><path d="M180.52,188.47c-1.63-1.18-2-3.72-1.13-5.68a9.06,9.06,0,0,1,4.44-4.3c.94-.48,2.17-.82,2.91-.1a2.78,2.78,0,0,1,.31,2.72,12.23,12.23,0,0,1-5.71,7.27" style="fill:#f5f5f5"></path><path d="M185.67,243.57a3.66,3.66,0,0,0,3.58-.06,3.13,3.13,0,0,0,1.31-1.87,4.59,4.59,0,0,0,0-2.3,2.87,2.87,0,0,0-1-1.71,2.51,2.51,0,0,0-2.28-.07,4.17,4.17,0,0,0-2.42,2.65C184.46,241.41,184.16,242.81,185.67,243.57Z" style="fill:#ebebeb"></path><path d="M202,172.88s-6.27-1-6.38,3.53,4.19,5.47,6.85,4.55a8.41,8.41,0,0,0,5.36-5.25l.68-2.27s2.17,3.13,4.45,3.17c0,0-4.53,4.64-.64,7.92,3.11,2.63,6.11,1.11,8.08-.93,0,0,3.76,2.06,8-1.29s4-7.36,4-7.36,3.09,1.81,3.46-3.42-1-9.51-6.48-8.23l-5.49,1.27s.54-6.25-4.61-6.83a8.32,8.32,0,0,0-7.75,3.77s-8.94.16-9.72,5.29S202,172.88,202,172.88Z" style="fill:#f5f5f5"></path><path d="M223.36,162.77a4.56,4.56,0,0,1,.31,2.5,10.58,10.58,0,0,1,8.55-3.31,4.83,4.83,0,0,1,3.13,1.26c1,1.07,1.1,2.59,1.21,4.11a11.73,11.73,0,0,0,11.31-.69,1.27,1.27,0,0,1,.3-2.42,7.38,7.38,0,0,1-4.9-.8,3.71,3.71,0,0,1-1.63-4.36,16.4,16.4,0,0,1,1.44-2.08,10.22,10.22,0,0,0-8.28-2.68c-3.34.37-6.88,1.42-10.66,7.92Z" style="fill:#ebebeb"></path><path d="M178.06,200.09A20.21,20.21,0,0,0,174.5,212s-8.65-1.47-11.06,7.31c-1.13,4.12-.68,7.1.12,9.1a17.19,17.19,0,0,1,2.27-7.47c2-3.14,5.84-5.35,9.41-4.35.56-3.72,1.2-7.6,3.41-10.64s6.54-4.9,9.86-3.13a16.44,16.44,0,0,0-.74-8.05l0,0S182.12,194,178.06,200.09Z" style="fill:#ebebeb"></path><g style="opacity:0.2"><path d="M180.07,332.37a6.13,6.13,0,0,1,3-5.9,11.57,11.57,0,0,1-6.55-1.46,7,7,0,0,1-3.43-5.72,5.59,5.59,0,0,1,.37-2.05c-.81,2-1.51,4.91-.13,7.25,2.35,4,3.72,4.41,3.72,4.41l.78-.15c-1.65,1.3-3.93,3.87,0,6.24,0,0-2.65,9.29,2.19,11.44,3.88,1.72,8.8,1.47,10.61,1.31a11.52,11.52,0,0,0,1.42-1.5c-2.77-1.43-2.49-4.61-1.71-7.81a9.41,9.41,0,0,1-6.49-.69A7.06,7.06,0,0,1,180.07,332.37Z" style="fill:#e0e0e0"></path></g><g style="opacity:0.2"><path d="M163.32,305.74c1.07,1.35,4.51,1,4.51,1s1.41,3.35,4.07,3.45a6,6,0,0,0,.9.16,4.39,4.39,0,0,0,1.82,4.52,13.7,13.7,0,0,0-1,1.81A4.89,4.89,0,0,1,176.9,314a11,11,0,0,1-1.62-12.3c1.58-3.06,5.1-4.61,8.53-4.8-.46-2.77-1.56-3.44-1.56-3.44s-3,4.64-7.42,3-4.87-4.71-4.87-4.71a27.78,27.78,0,0,0,1.11,5.52s-2.08-3.32-5.8-.74S161.4,303.33,163.32,305.74Z" style="fill:#e0e0e0"></path></g><g style="opacity:0.2"><path d="M184.42,296.75l-.5.09a12.94,12.94,0,0,1,2.73.16A8.89,8.89,0,0,0,184.42,296.75Z" style="fill:#e0e0e0"></path></g><path d="M194.44,331a17.24,17.24,0,0,1,4.53-.14,5.54,5.54,0,0,1,3.82,2.09,3.81,3.81,0,0,1,.07,4.34,9.55,9.55,0,0,1,4.36,9.39,8.39,8.39,0,0,1,7-4.86c-.32-2.72-1.37-6.87-4.47-9.54-4.71-4.05-11-3.55-11-3.55s4-5.79-4.53-6C198.25,326.12,194.44,331,194.44,331Z" style="fill:#ebebeb"></path><path d="M318.62,199c-.59,7.41,3.28,18.11,12.47,27.51,7.78,7.95,10,14.55,12.74,17.9,2.28,2.78,6.57,10.9,7.95,13.56-.37,1.35-2.64,6-.85,8.61,2,2.88,5.86,6.1,5.56,13.26-.3,7-1.34,13.33-5.38,24.49,0,0-9.43,14.06-13.84,15.9-4,1.65-5.26.7-11.31,5.35s-3.41,6-5.7,11.53-11.56,7.52-10.11,9.67,6-2.62,8.82.31.47,7.07-3.07,11.17-9.27,1.14-16.17,5.79a17.4,17.4,0,0,0-7.61,13.38c-.19,1.84-4.49,1.14-6.52,2.79s1,1.57,1,1.57c12.67,1.7,21-5.16,26.31-9.6a33,33,0,0,0,8.86-12c1.18-2.5,7.34-12.06,10.76-12.1s2.57,3.39,1.56,6.13-6.86,5.14-9.23,7.58-2.49,4.81-2,5.95,3.34-2.29,7.49-5.06,8.8.29,13.2-3,6-10.61,8.25-15.81a8.58,8.58,0,0,1,2.09-2.78A27.67,27.67,0,0,0,362.25,326c1-1.07,2.92-2.9,5.46-2.75,3.37.2,4.06,1.68,3.86,3.63s-2.63,5.09-3,7,2.08-1.05,5.21-4.12,13.54-9.76,14.83-18.23.28-8.29,1.36-13.39c1-4.85,8.6-15.27,6.84-30.7.21-1.37.42-2.8.58-4.07.55-4.35,1.95-9.43,2.08-12.76s-.47-6.93-4.05-8.47-1.26-3.08-2.16-7.69c-.54-2.75-2.41-6.67-3.84-9.4-.25-1.29-.53-2.55-.84-3.72a87.21,87.21,0,0,0-1-8.74c-.45-1.2-1.93-1.74-3.74-2.41s-1.93-.34-3.22-1.72-1-2.44-1.93-2.78-.2,1.22-.11,3.06a3,3,0,0,1-3.42,3c-1.55-.32-5-11.13-4.82-11.45s.68-1.67,2.1-.63a22.33,22.33,0,0,0,2.17,1.45s1.16-2.79.27-4.54c-.61-1.18-3.17-2.73-4.78-3.62a3.37,3.37,0,0,0-.83-.91c-5.1-4-15.2-13.13-22.67-14.7-11.75-2.47-20.37,2.18-25.39,13A54,54,0,0,0,318.62,199Zm55.59,117.44c1-2.13,4.66-6.24,7.18-7.23s1.29,1.38,1,4.85-1.53,4.5-3.89,6.58-4.22.92-4.84.94A10.15,10.15,0,0,1,374.21,316.39Zm-34.82,17c-2,2.43-14.31,13-16.68,9.72s11.4-17.09,14.85-18.27l.1,0a2.77,2.77,0,0,1,3.61,3.1C340.93,330,340.36,332.23,339.39,333.41Zm30.73-65.9c.1,2.89-2.19,6.45-2.38,5.36a53.87,53.87,0,0,0-2.07-7.42l-.19-7.23S370,264.61,370.12,267.51Z" style="fill:#e0e0e0"></path><path d="M342.93,320.64s.32-.26.86-.74A7.13,7.13,0,0,0,342.93,320.64Z" style="fill:#fff"></path><path d="M343,224.89c4.77,1-2.58,7.83.4,11.8,9.23,12.29,8.72,7.73,8.72,7.73a39.54,39.54,0,0,1-1.27-3.87c-.59-2.18,2.14-11.49,2.14-11.49s3.15,1,6.81,4.92,1.33,12.49,1.33,12.49,10.42,7.24,12.58,14.77-1.17,13-5.08,16.38-6.14-5.17-6.14-5.17.76,3.65-.07,18.19c-.72,12.67-14.93,26-18.58,29.26a7,7,0,0,1,7.69-.5C356.57,322,350.3,334,350.3,334s5.68-8,10.26-11.44a44.28,44.28,0,0,0,6.46-5.63s.15-7.88,1.6-12.61,6.95-7.58,10.65-8.83,5.11,4.1,5.11,4.1a30.73,30.73,0,0,0,.43-4.19c.05-2.1-.11-3.75,2.14-11.64s5.19-23.69,5.11-29.22-7.64-4.19-9.71-9.44,2.83-14.59-.39-20.7-12.38-7.92-12.54-8.73a53,53,0,0,0-5.34-15.49h0c-.31-.56-.12-2.76.31-3s5.72-1.78,6.24-.9-.27-2.18-2.91-3.06-4.68-1.59-4.18-2c0,0-6.75-8-9.3-8.15-3.38-2.11-8.12-4.94-12-5.48-12.81.85-15.16,5.56-18.77,10.88s-2.73,14.35-2.73,14.35A28.2,28.2,0,0,0,343,224.89Z" style="fill:#ebebeb"></path><path d="M366.4,338.85a6.31,6.31,0,0,0-.85,4.08,12.36,12.36,0,0,1-2.51,8.55c-2,2.36-2.55,1.62-2.55,1.62a13.74,13.74,0,0,0,.71-6.13c-.5-2.83-.28-5,1.87-7S366.4,338.85,366.4,338.85Z" style="fill:#e0e0e0"></path><path d="M350.66,271.17a6.34,6.34,0,0,0,0,4.17,12.29,12.29,0,0,1-.63,8.88c-1.44,2.73-2.15,2.13-2.15,2.13a13.74,13.74,0,0,0-.61-6.14c-1.09-2.66-1.33-4.82.34-7.25S350.66,271.17,350.66,271.17Z" style="fill:#e0e0e0"></path><path d="M269.87,351.41s6.33,4.51,11.07,2.32,2.27-3.7,6.63-5.19,2.8-3.14,2.8-3.14-5.16-3.58-10-1.57-4,4.55-7.26,6.06Z" style="fill:#e0e0e0"></path><path d="M297.31,356.39s2.88.4,4.43-.84,3.46-2.67,3.24-4.33-1.4-2.33-2.42-1.27S297.31,356.39,297.31,356.39Z" style="fill:#e0e0e0"></path><path d="M381,269.24a24.41,24.41,0,0,0,2-10.33c-.48-5.41-.91-10.2-3.86-10.73s-4.92,1-5.84-1.85-1.91-6.68-.62-6.93,6.38,2.06,6.86,2.94.44-1-.58-3.51-4.81-5.1-6.84-7.16-4.09-6-5.14-5.87.68,5.88,1.49,7.78a20.91,20.91,0,0,1,.91,5.72s-3.36,2.87-2.8,4.07,6.76,6.25,9.75,8.75,3.22,2.15,3.87,6.34S381,269.24,381,269.24Z" style="fill:#f5f5f5"></path><path d="M349,336.07s-.5,4.06-1.06,6.86-2.45,1.26-5.14,4-5.1,8.94-5.1,8.94.52-10.39,1.14-11.21a8.35,8.35,0,0,0,4.63-1.05c1.76-1.25,3.08-5.4,3.84-6.75S349,336.07,349,336.07Z" style="fill:#ebebeb"></path><path d="M329.72,233.23s4.13,1.92,5.78,7.85.7,15.36.82,16.63.85,6.35.85,6.35-6.76-7.45-7.66-13.31S329.72,233.23,329.72,233.23Z" style="fill:#e0e0e0"></path><path d="M366.26,217.62s.69-3.6-1.18-5.67-3.14-4.59-2.47-6.65,1.54-10.55-.8-15.49-13.6-10.52-20.19-10.63c-10.5-.18-12.62.85-16.93,7.6s-5.05,13.28-3.46,17.32,7.91,15.54,13.21,16.85,8.78,1.77,11.41,2.74,5.14,8.14,6.06,7.45,1-2.84.58-5-4.8-7-4.26-8.46,3.48-4.92,6-3.26,5.57,3.15,6.47,4.67,2,5.09,2.82,6,1.53-3.36.56-5.28-2.26-4.47-1.41-4.45S366.05,216.59,366.26,217.62Z" style="fill:#f5f5f5"></path><path d="M355.87,249.79a.5.5,0,0,1,.86-.39,42.83,42.83,0,0,1,3.6,3.94c-.18.09,2.19,5.18,2,7.51s-.12,4.72-.57,5.65-1.9-10-3.79-10.56C356.58,255.53,356.06,251.84,355.87,249.79Z" style="fill:#ebebeb"></path><path d="M310.42,368.36a4,4,0,0,1-.59,3.44c-1.2,1.46-10.29,6.32-10.29,6.32l-5.89,1,5.7-4.42s-1.91-2.73.19-4.8S310.42,368.36,310.42,368.36Z" style="fill:#ebebeb"></path><path d="M377.94,276.27a84.81,84.81,0,0,1-1.83,9c-.86,2.65-4.45,3.45-4.45,3.45s-2.52,7.36-3.08,8.09-8.51,9.86-8.51,9.86,6-8.76,6.8-11.21S369.66,285,369.66,285,375.61,284.14,377.94,276.27Z" style="fill:#f5f5f5"></path><path d="M251.09,381.23s11.24,2.25,13.28-.46.47-2.16,2.41-3.78,12.82-4.63,14.78-6.52-13.7-7-14.57-6.55.78.62-1.78,1.49-8.95-.12-11.69,1.15-.4-.18,3,2.06,2.85,5.54,1.39,7.73-3.3,1.19-5.37,2.66S251.09,381.23,251.09,381.23Z" style="fill:#e0e0e0"></path><path d="M231.33,371.17s7.13,4.92,12.53.17c0,0-3.24-.85-4.56-3A28.62,28.62,0,0,1,231.33,371.17Z" style="fill:#e0e0e0"></path><path d="M237.32,384.12s5.94-3.19,4.48-3.73-4.55,1.51-4.55,1.51Z" style="fill:#e0e0e0"></path><path d="M326.94,205.93c1.94,1.54,4.29,3.73,7,4.29l5.67,1.2a8.67,8.67,0,0,1,4,2.53,4.5,4.5,0,0,0,.54-5.25c-1.59-3.15-4.9-4.41-5.28-6.18a5.1,5.1,0,0,1,.83-3.49s4.72-1,5.13,1.08,3.71,2.47,3.71,2.47l2.95-2,3.8,3.38c1-.65-2.66-4.8-2.43-5.88s1.85-6.09,1-7.4-4.58-6.35-9.87-8-10.52-.75-12.77.44c-3.81,2-6.22,7.11-6.84,9.24C322.9,197.31,325,204.4,326.94,205.93Zm11-.57c1.53.48,2.67,3.54,2.67,3.54l-5.16-2.28-.5-2.55A17.16,17.16,0,0,0,337.9,205.36Z" style="fill:#fafafa"></path><path d="M328.38,193.48c.17,2.79,1.57,5.41,4.46,6.17.8.18,1.46,0,1.57-.67s-.12-1.34,0-2a3.13,3.13,0,0,1,2-2.29,19.82,19.82,0,0,1,3.07-.82,4.34,4.34,0,0,0,2.64-1.63,3.27,3.27,0,0,0,.18-3,5.4,5.4,0,0,0-2-2.31,7.88,7.88,0,0,0-8-.39A7.57,7.57,0,0,0,328.38,193.48Z" style="fill:#fff"></path><path d="M358.52,211.77s-.89-6.09-2.19-5.9-4.05.65-4.05.65l-1.83-1.89a5.08,5.08,0,0,0,1.44,2.86c1.21,1,4.28.65,4.28.65Z" style="fill:#fafafa"></path><path d="M334.39,367.57c0,.36.21.65.46.6h0a.89.89,0,0,0,.48-.82c0-.37-.21-.65-.46-.59S334.4,367.2,334.39,367.57Z" style="fill:#e0e0e0"></path><path d="M263.41,350.14c0,.37.21.66.46.61h0a.86.86,0,0,0,.49-.82c0-.36-.22-.64-.47-.59A.89.89,0,0,0,263.41,350.14Z" style="fill:#e0e0e0"></path><path d="M314.84,334c0,.37.21.66.46.6h0a.87.87,0,0,0,.48-.82c0-.37-.22-.65-.47-.59A.88.88,0,0,0,314.84,334Z" style="fill:#e0e0e0"></path><path d="M409.5,245.38c0,.37.21.65.46.6h0a.87.87,0,0,0,.48-.82c0-.37-.22-.65-.47-.59A.88.88,0,0,0,409.5,245.38Z" style="fill:#e0e0e0"></path><path d="M324.33,228.56c0,.37.21.65.46.6h0a.89.89,0,0,0,.48-.82c0-.37-.21-.65-.46-.59A.87.87,0,0,0,324.33,228.56Z" style="fill:#e0e0e0"></path><path d="M379.85,200.73c0,.37.21.65.46.6h0a.88.88,0,0,0,.48-.82c0-.37-.21-.65-.46-.59A.88.88,0,0,0,379.85,200.73Z" style="fill:#e0e0e0"></path><path d="M244.44,386c0,.36.21.65.46.6h0a.92.92,0,0,0,.49-.82c0-.37-.22-.65-.47-.59A.85.85,0,0,0,244.44,386Z" style="fill:#e0e0e0"></path><path d="M281.19,386.77c0,.37.21.66.46.61h0a.89.89,0,0,0,.49-.82c0-.36-.22-.64-.47-.59A.9.9,0,0,0,281.19,386.77Z" style="fill:#e0e0e0"></path><path d="M322.92,373.17v-.05" style="fill:#e0e0e0"></path><path d="M290.38,368.75v0" style="fill:#e0e0e0"></path><path d="M403.7,260l0-.2" style="fill:#e0e0e0"></path><path d="M383.61,204.31l0-.2" style="fill:#e0e0e0"></path></g><g id="freepik--Smoke--inject-26"><path d="M357.25,65c-7.77-2.15-18.92,7.33-18.92,7.33s1.4-11.24-12.45-17.06a26.24,26.24,0,0,0-24.76,2.35s2.78-6.2-3.73-12.48-9.66-3.62-10.79-2.3l-4.53,5.28s-9.82-6.06-15.42-2.56c-12.27-4.38-39.4-10.89-40.34,16.73,0,0-19.16-5.16-20.44,6.58,0,0-45.58-15.2-38.72,21.68,0,0-15.21,1-18,11.17,0,0-27.14,1.23-29.31,18.34,0,0-19.27,5.18-14.62,17.29,0,0-12.52,1.18-11.44,9.62L87,151.41s-6-7.27-6,.12,1.67,16.36,16.49,4.49c0,0,14.91,3.9,25.55-1.82S131.73,137,131.73,137s21.56,1.36,20.11-18.43c0,0,7.3,4.4,23.18,1.47s6.86-14.34,6.86-14.34,10.47,5.59,21.9-4c0,0,7.66,15.76,25.91,9.53,15.72-5.37,11.54-19.66,10.08-23.52.95,1.54,4.08,4,14.14.37,7.68-2.76,4.13-7.57,4.13-7.57l2.3-5.15c2.1,3.84,8.1,12.29,19,8.65,14-4.65,12.35-8.37,12.35-8.37s5.64,9.65,14.66,7.68c0,0,3.36,16.59,16.55,13.45,0,0-1.16,12.63,12.27,11.25l24.85-34.84S365,67.1,357.25,65Z" style="fill:#ebebeb"></path><path d="M424.66,201.43s-12.54-4.14-14.53,4.78,4.94,14.68,9.34,12.77c0,0,1.2,7.09,6.52,8.53l5.33,1.43a9.92,9.92,0,0,0-1.77,11.82s-13.89,9.11-9.47,19.6,14.9,7.48,14.9,7.48-1.75,13.21,6.67,16.87c5.23,2.28,17.82-.33,26.6-2.63a22.21,22.21,0,0,0,16-15.29c2.09-7.62-1-13.12-6.92-19.82l-14.23-37.31.08-14.53L441.35,205.4l-10.86-13.06Z" style="fill:#ebebeb"></path><path d="M424.66,201.43s-12.54-4.14-14.53,4.78,4.94,14.68,9.34,12.77c0,0,1.2,7.09,6.52,8.53l5.33,1.43a9.92,9.92,0,0,0-1.77,11.82s-13.89,9.11-9.47,19.6,14.9,7.48,14.9,7.48-1.75,13.21,6.67,16.87c5.23,2.28,17.82-.33,26.6-2.63a22.21,22.21,0,0,0,16-15.29c2.09-7.62-1-13.12-6.92-19.82l-14.23-37.31.08-14.53L441.35,205.4l-10.86-13.06Z" style="opacity:0.1"></path><g style="opacity:0.2"><path d="M229.69,111.22c6.56-2.24,9.64-6,10.91-10a19.24,19.24,0,0,1-11.87-6.5c-5.77,6-17,5-21.63-1.9a27.06,27.06,0,0,1-28.78,6.69,11.1,11.1,0,0,1,1.27,8.25A7.05,7.05,0,0,1,173.5,113c-2.85.12-5.69-2.45-5.38-5.29a33.23,33.23,0,0,1-25.93,5.43,12.89,12.89,0,0,1-15.3,18.5,17.23,17.23,0,0,1-26.81,17,41.22,41.22,0,0,1-12.76,12.25l2.52.05A33.71,33.71,0,0,0,97.51,156s14.91,3.9,25.55-1.82S131.73,137,131.73,137s21.56,1.36,20.11-18.43c0,0,7.3,4.4,23.18,1.47s6.86-14.34,6.86-14.34,10.47,5.59,21.9-4C203.78,101.69,211.44,117.45,229.69,111.22Z"></path></g><path d="M333.21,103.67c.05,1.27,2.93,15.11,13.23,20.78s21.77,2.28,21.77,2.28S363.07,139,379,136.1l26-15.6s11.07-9.59-.36-13.64c0,0,1.29-18.23-8.53-20.32s-21.43,2.13-21.43,2.13,7.6-11.71.84-14.52-17.84-.59-17.84-.59Z" style="fill:#ebebeb"></path><path d="M378.81,138.7s-8.13.61-7.49,10.89,11.84,19,17.78,18l1.12.56s2.54,15.23,16.91,12.1l9.62-4s6.66,6.82,14.11,1.34l-1.33-24.42L422.47,157s3.89-10.55-4.25-14c0,0,4.62-11.89-1.29-18.36s-8.62-6.71-8.62-6.71l-29,12.1Z" style="fill:#ebebeb"></path><path d="M425.09,150.54s-10.17-.86-11.54,10.41c0,0-8.77,2.37-6.94,12.83s5.85,11.85,5.85,11.85-6.86,7.58-1.55,15.77,16.84,3.81,20,1.48,7.63-9,5.72-16.23a54.08,54.08,0,0,0-5-12.47s5.15,5.34,11-.88,4.51-14.17,0-17.89c-2.5-2.08-8.74-.07-8.74-.07S430,149.68,425.09,150.54Z" style="fill:#ebebeb"></path><path d="M438.25,200.54s-3.4-24.48,13.21-26.36c0,0,11.29-1.6,10.74,11.16,0,0,6.29,1,5.72,7.31,0,0,7.22-3.15,11.53,6.69s-1.33,16.24-1.33,16.24,5.33-1.27,10.82,5.22a11,11,0,0,1,2.46,7.14,14.56,14.56,0,0,1-6.18,12l-7.18,5s-5.1,23.37-28.44,12.52c-16.61-7.73-6.74-24.31-6.74-24.31s-9.92,10.5-16.91-1.45S424.15,203.39,438.25,200.54Z" style="fill:#ebebeb"></path><path d="M447.65,295.84s-32.51-4.46-29.77,29.21c0,0-14.15,10.57,3.5,24l19.39,21.58s10.7-.88,15.83-13.79,2-23.34,2-23.34,16.61-.66,17.64-17.87-9.22-22-9.22-22,8.63-14.35,3-31-15.56-23.13-22.41-4.57S444.5,290,447.65,295.84Z" style="fill:#ebebeb"></path><path d="M427.08,345.15s15.13-7.2,16.75,7.38-4.05,18-4.05,18,3.18,8.29-1.11,12.93c0,0,4.95,8.69-5,23.89s-30.93,9.92-30.93,9.92l-4.94-17.17a17.22,17.22,0,0,1,1.22-12.91,9.29,9.29,0,0,1,4.67-4.56s-2.65-15.59.65-22.05c5.19-10.17,18.33-11.78,18.33-11.78Z" style="fill:#ebebeb"></path><g style="opacity:0.1"><path d="M433.71,407.33c6.86-10.53,6.6-17.93,5.79-21.49a16.19,16.19,0,0,1-15.39,8.45c-6.32-.57-7.59-5.18-9.3-11.3-2,4-9.86,3.24-11.7-5.21.28,2.84.62,4.83.62,4.83a9.29,9.29,0,0,0-4.67,4.56,17.22,17.22,0,0,0-1.22,12.91l.41,1.42a9.91,9.91,0,0,1,2.76,4.14c1,3.08.41,6.56,1.21,9.66l.11.39a7.31,7.31,0,0,0,.54,1.38l.39.28C406.44,418,424.68,421.18,433.71,407.33Z"></path></g><path d="M245.52,443.73l4.62-.11s1.14-6.35,6.07-3.65,3.46,5.31,3.46,5.31l5.65-.13s-2-7.72,11.66-6.37,8.91,7.78,8.91,7.78l4.87-.11s1.4-6.12,10.13-6.09,7.06,5.7,7.06,5.7,5.87-1.77,5.44,2.22-2.6,5.44-2.6,5.44,9.91-.46,7.24,6.63-11.13,7-11.13,7-9.5,11.23-14.88.34c0,0-9.92,4.68-9.75-4.93,0,0-8.48,4.88-17.5,3.44s-5.81-7.13-5.81-7.13-5.92-.8-3.21-5.54c0,0-3.86-.62-4.94-2.94l-6.18-.79S232.1,452,234.5,444.68,246,442.55,245.52,443.73Z" style="fill:#ebebeb"></path><path d="M310.79,453.72s2.18-1.45,2.6-5.44a3,3,0,0,0,0-.85l-14.39.78c1.89,8-2.28,10.24,11.39,12.77-.23,0-4.1,4.79-4.33,4.82-3.67.5-7.83-1.88-8.3-5.55A8.82,8.82,0,0,1,282.49,458a8.32,8.32,0,0,1-15.74-4.38A8.2,8.2,0,0,1,254.39,448a14.24,14.24,0,0,1-5.28.21,5.89,5.89,0,0,1-4.21-2.92,4.08,4.08,0,0,1-.29-2.71c-2.3-1.67-8.24-3.56-10.11,2.14-2.4,7.32,10.13,5.16,10.13,5.16l6.18.79c1.08,2.32,4.94,2.94,4.94,2.94-2.71,4.74,3.21,5.54,3.21,5.54s-3.21,5.7,5.81,7.13,17.5-3.44,17.5-3.44c-.17,9.61,9.75,4.93,9.75,4.93,5.38,10.89,14.88-.34,14.88-.34s8.47.05,11.13-7S310.79,453.72,310.79,453.72Z" style="opacity:0.1"></path><path d="M362.15,437.89c-12-4.82-20,1.13-22.46,2.45,1.42-2.75-4.46-7.33-8-8.29A13.1,13.1,0,0,0,321,434.31a10.69,10.69,0,0,0-4.26,8,16.25,16.25,0,0,0-11.53.05c-3.62,1.44-6.26,4.32-6.57,7.33s1.77,6,5.24,7.36c2.84,1.11,6.89.95,9.06-1-.25,4,3.56,7.68,8.66,8.47s11-1.45,13.34-5.08a10.1,10.1,0,0,0,7.89,2,9.28,9.28,0,0,0,6.72-4.16C353,461.13,359.8,463,366.06,462s12.82-3.49,19.2-16.22l6.62-5.31Z" style="fill:#ebebeb"></path><path d="M357.22,397.11a2.09,2.09,0,0,1,1.26,2.3,5.53,5.53,0,0,1-1.27,2.59,21.38,21.38,0,0,1-8.85,6.74c-1.09.43-2.52.68-3.2-.29s-.17-2.16.38-3.12a17.36,17.36,0,0,1,11.5-8.4" style="fill:#ebebeb"></path><path d="M315.88,418.51a2,2,0,0,1,2.51,1.54,3.75,3.75,0,0,1-1,3.21c-.85.95-2.24,1.57-3.3,1a2.74,2.74,0,0,1-.74-3.49,5.46,5.46,0,0,1,2.9-2.45" style="fill:#ebebeb"></path><path d="M418.58,455.49a5.18,5.18,0,0,1,4.39,0,4.12,4.12,0,0,1,2.2,3.82,5.46,5.46,0,0,1-2.84,4,8.75,8.75,0,0,1-6.28,1.11,2.62,2.62,0,0,1-1.89-1.15,3,3,0,0,1,0-2.24,9.24,9.24,0,0,1,4.31-5.39" style="fill:#ebebeb"></path><path d="M456.58,379.3c3.48,1.54,5.08,6.12,4.3,10.07s-3.47,7.25-6.54,9.7c-1.56,1.25-3.71,2.35-5.37,1.31-1.48-.93-1.74-3.08-1.61-4.91a23,23,0,0,1,7.74-15.69" style="fill:#ebebeb"></path><path d="M425.56,279.26a6.89,6.89,0,0,0-6.61,1.51,5.87,5.87,0,0,0-1.71,4,8.66,8.66,0,0,0,.95,4.25,5.31,5.31,0,0,0,2.59,2.76A4.7,4.7,0,0,0,425,291a7.89,7.89,0,0,0,3.44-5.85C428.63,282.78,428.64,280.08,425.56,279.26Z" style="fill:#ebebeb"></path><path d="M422.85,416.55s12-.62,10.44-9-9.88-8.5-14.46-5.76A15.89,15.89,0,0,0,411,413.58l-.37,4.47s-5.24-4.95-9.48-4.15c0,0,6.56-10.35-1.92-14.92-6.78-3.64-11.74.34-14.59,4.88,0,0-7.77-2.34-14.21,5.49s-4.64,15.2-4.64,15.2-6.43-2.14-5.08,7.69,5.54,17.23,15.22,12.73l9.67-4.51s1.43,11.79,11.2,10.85,12.87-10,12.87-10,16.51-3.77,15.95-13.58S422.85,416.55,422.85,416.55Z" style="fill:#ebebeb"></path><g style="opacity:0.1"><path d="M386.66,444.62a8.71,8.71,0,0,1-.88-4.69A20,20,0,0,1,370,447.18a9.13,9.13,0,0,1-6.06-2c-2-1.9-2.39-4.75-2.78-7.62-10-3.62-17.33-.15-21.26,2.64a2.41,2.41,0,0,1-.28,4.62c3.14-.61,6.55-.64,9.35.92s4.67,5,3.58,8c-.54,1.49-1.71,2.72-2.47,4.09,3.62,3.45,10,5.12,16,4.09,6.26-1.09,12.82-3.49,19.2-16.22Z"></path></g><g style="opacity:0.1"><path d="M456.6,356.81c5.13-12.9,2-23.34,2-23.34s16.61-.66,17.64-17.87c.49-8.07-1.51-13.4-3.76-16.79a32.61,32.61,0,0,1-1.31,14.71c-2.41,6.59-8.73,12.2-15.73,11.72.42,7.11.75,14.54-2.17,21s-10.19,11.63-17,9.65a31,31,0,0,0,4.51,14.61l.06.06S451.47,369.72,456.6,356.81Z"></path></g><g style="opacity:0.1"><path d="M401.3,112.63c1.33,4.19.15,9.32-3.18,12.08,4.19-1,8.66-1.32,12.7.14a13.31,13.31,0,0,1,8.59,9.26,10.86,10.86,0,0,1,.11,3.94c.72-4,.87-9.68-2.59-13.47-5.91-6.46-8.62-6.71-8.62-6.71l-1.37.57c2.55-3,5.77-8.71-2.34-11.58,0,0,1.29-18.23-8.53-20.32-7.85-1.68-16.86.69-20.14,1.71a20.28,20.28,0,0,0-2.05,3.33c5.68,1.56,6.4,7.56,6.2,13.8a17.77,17.77,0,0,1,12.3-1.25A13.34,13.34,0,0,1,401.3,112.63Z"></path></g><g style="opacity:0.1"><path d="M442.7,155.41c-2.5-2.08-8.74-.07-8.74-.07s-3.92-5.66-8.87-4.8a10.78,10.78,0,0,0-1.73.06,8.33,8.33,0,0,0-5.14-7.66,26.85,26.85,0,0,0,1.07-3.74,9.22,9.22,0,0,1-4.94,6.3c6.73,4.49,10.07,14,7.8,22.15-1.74,6.28-7.64,10.52-13.92,12.22,1.92,4.95,4.23,5.76,4.23,5.76s3.77-9.78,12.55-8.46S435.87,184,435.87,184a52.41,52.41,0,0,0-4.2-9.81s5.15,5.34,11-.88S447.2,159.13,442.7,155.41Z"></path></g><g style="opacity:0.2"><path d="M407.13,180.29l.9-.37a24.15,24.15,0,0,1-5.13.78A17,17,0,0,0,407.13,180.29Z"></path></g><g style="opacity:0.1"><path d="M375.25,120.86a33.28,33.28,0,0,1-8.35,2A10.59,10.59,0,0,1,359,120.5a7.21,7.21,0,0,1-1.82-8A18,18,0,0,1,345.47,96.8a15.9,15.9,0,0,1-11,11.73c1.66,4.9,5.22,12.18,12,15.92,10.29,5.67,21.77,2.28,21.77,2.28S363.07,139,379,136.1C370.07,131.3,375.25,120.86,375.25,120.86Z"></path></g></g><g id="freepik--fire-ball--inject-26"><path d="M196.74,413.73c-1.79-14-13.14-32.26-33.82-46.08-17.51-11.7-24.18-23.06-30.57-28.18-5.31-4.26-16.42-17.63-20-22,.16-2.66,2.54-12.14-1.78-16.29-4.76-4.56-13.24-9-15.47-22.38-2.17-13-2.71-25.21.4-47.45,0,0,12-29.71,19.45-34.84,6.69-4.59,9.47-3.35,18.85-14.32s4-12.43,6.06-23.57,18.48-18.43,15-21.84-10.05,7.17-16.44,2.86-3.64-12.92,1.33-21.89,16.72-5.72,27.68-17,9.22-24.27,8.87-27.75,7.87-3.85,11-7.71-2.56-2.48-2.56-2.48c-24.11,1.78-36.86,17.73-45,28A62.48,62.48,0,0,0,128,116.38c-1.21,5.1-8.89,25.21-15.21,26.61s-6.09-5.27-5.27-10.74,10.7-12.19,14.12-17.64,2.74-9.88,1.41-11.8-5.28,5.54-11.89,12.29S94.7,118,87.82,125.74s-7,22-9.12,32.51a16.32,16.32,0,0,1-2.78,5.95,52.4,52.4,0,0,0-9.51,31.28c-1.41,2.38-4.28,6.53-9,7.24-6.31.93-8.17-1.54-8.57-5.23s2.9-10.45,2.77-14.18-3.45,2.77-8,9.67-21.27,23.35-20.35,39.54,2.71,15.46,2.69,25.33c0,9.39-10,31.63-.68,59.51.14,2.63.3,5.35.5,7.77.68,8.27.08,18.22,1.12,24.44s3.57,12.65,10.8,14.11,3.54,5.21,7,13.4c2.07,4.87,7.07,11.4,10.78,15.9,1,2.3,2,4.52,3,6.57,2.08,6.87,4.53,14.67,5.25,15.79,1.31,2,4.25,2.48,7.86,3s3.72-.14,6.64,1.92,2.85,4.12,4.66,4.39-.11-2.33-1-5.69A5.76,5.76,0,0,1,87,412.13c3,0,13.61,18.66,13.4,19.32s-.62,3.38-3.65,2a40.57,40.57,0,0,0-4.57-1.84s-1.07,5.62,1.27,8.51c1.57,1.94,6.92,3.82,10.25,4.85a7,7,0,0,0,1.89,1.36c11,5.41,33.28,18.38,47.71,18.38,22.72,0,36.89-12,42-34C196,427.17,197,415.72,196.74,413.73ZM48,217.91c-1.06,4.35-6.2,13.37-10.48,16.2s-2.93-2.06-3.79-8.58,1.08-8.93,4.64-13.72,7.44-3.33,8.6-3.63C47,208.18,49.06,213.55,48,217.91Zm57.85-45.09c2.73-5.27,21.44-29.57,27.1-24.5s-14.44,36.08-20.38,39.61l-.17.11a5.25,5.25,0,0,1-7.89-4.34C104.34,179.83,104.51,175.39,105.85,172.82Zm-31.21,134C73.32,301.52,76.18,294.05,77,296a103.68,103.68,0,0,0,6.71,12.93l3.18,13.31S76,312.16,74.64,306.84Z" style="fill:#850000"></path><g style="opacity:0.30000000000000004"><path d="M104.26,197.85s-.47.6-1.29,1.7A11.56,11.56,0,0,0,104.26,197.85Z" style="fill:#fff"></path><path d="M141.57,375.17c-9.23,0,1.71-15.51-5.35-21.7-21.88-19.16-19.15-10.91-19.15-10.91a76,76,0,0,1,3.86,6.68c1.94,3.79.51,22.1.51,22.1s-6.22-.57-14.54-6.45-7.33-22.61-7.33-22.61-22.11-9.34-29-22.45-2.93-24.61,3-32.32,13.39,7.19,13.39,7.19-2.84-6.47-7-33.72c-3.6-23.74,17.51-54,23-61.43a13.23,13.23,0,0,1-14,3.92c-10.46-2.87-3.49-27.41-3.49-27.41s-7.42,17-14.55,25.18-9.77,12.94-9.77,12.94,2.8,14.66,2,24-9.91,16.75-16.27,20.5-11.07-5.59-11.07-5.59a60.1,60.1,0,0,0,.84,7.91c.73,3.93,1.66,6.9.57,22.4s-.38,45.89,1.94,56.11,15.78,4.78,21.65,13.69.45,28.13,8.8,38.18,26,9.85,26.62,11.29c4.85,11.37,10.29,20,15.93,26.61h0c.8.92,1.31,5.07.61,5.72s-9.9,5.54-11.2,4.12,1.34,3.92,6.57,4.53,9.29,1.12,8.55,2.14c0,0,15.62,12.18,20.4,11.48,7.07,2.58,17,6,24.29,5.47,23.4-6.56,25.92-16.21,30.53-27.46s-.55-27.65-.55-27.65S179.26,375.32,141.57,375.17Z" style="fill:#fff"></path></g><path d="M52.9,169.48a11.94,11.94,0,0,0,0-7.89,23.34,23.34,0,0,1,1.3-16.8c2.76-5.16,4.1-4,4.1-4s-1,6.6,1.07,11.64,2.46,9.13-.73,13.71S52.9,169.48,52.9,169.48Z" style="fill:#fff"></path><path d="M227.58,112.38s-13.48-5.88-21.4,0-2.76,7.74-10.26,12.18-4,6.92-4,6.92,11,4.61,19.06-1,5.6-10,11.08-14.05Z" style="fill:#fff"></path><path d="M174.81,113.85s-5.49.39-7.87,3.28-5.37,6.3-4.31,9.29,3.5,3.76,5,1.4S174.81,113.85,174.81,113.85Z" style="fill:#fff"></path><path d="M53.77,307.89c-.42,1.17-2,12.05.38,19.9,3,9.83,5.67,18.53,11.33,18.36s8.74-3.72,11.53,1.15,6.16,11.63,3.86,12.59S68.24,358.56,67,357.11s-.44,2,2.44,6.28S80.36,371,84.92,374s9.91,9.44,11.81,8.86S93.18,372.24,90.94,369,87,358.79,87,358.79s5.09-6.63,3.59-8.64-15-8.94-21.47-12.4-6.81-2.71-9.63-10.24S53.77,307.89,53.77,307.89Z" style="fill:#fff;opacity:0.30000000000000004"></path><path d="M87,171.63s-.65-7.7-.72-13.1,4-3.3,8-9.46,6-18.55,6-18.55,3.08,19.44,2.26,21.22c0,0-5.38.74-8.16,3.74s-3.6,11.19-4.48,14S87,171.63,87,171.63Z" style="fill:#fff;opacity:0.30000000000000004"></path><path d="M101.24,397.73s.12,6.94,4.38,10,7.61,7.27,7.18,11.36,1.25,20.12,7.51,28.36,29.3,14.18,41.54,11.82c19.52-3.76,23-6.49,28.4-20.69s4.16-26.55-.36-33.42-20.7-25.68-31-26.05-17,.15-22.2-.62S124,365.46,122.53,367.09s-.84,5.67.9,9.53,11.61,11.06,11.17,14-4.52,10.48-9.91,8.4-11.54-3.67-13.81-6.13-5.65-8.65-7.53-9.94-1.53,6.82,1,10,5.93,7.4,4.35,7.7S102,399.55,101.24,397.73Z" style="fill:#fff;opacity:0.30000000000000004"></path><path d="M107.92,334.11a.94.94,0,0,1-1.43,1.05c-3.09-2.09-8.43-5.74-8.21-5.9s-6.07-8.73-6.55-13.13-1.62-8.8-1.14-10.7S98,323.2,101.72,323.52C104.38,323.75,106.78,330.38,107.92,334.11Z" style="fill:#fff;opacity:0.30000000000000004"></path><path d="M145.87,96.8s-1.9-3.45-.25-6.61,16.6-15.72,16.6-15.72l10.52-4.1-8.82,10.41s4.6,4.31,1.51,9S145.87,96.8,145.87,96.8Z" style="fill:#fff;opacity:0.30000000000000004"></path><path d="M56.74,293.67s-.67-12.13-.12-17.37,6.89-8.13,6.89-8.13,1.8-14.61,2.55-16.17S78,230.42,78,230.42,70.35,249,69.76,253.83s-1.09,20.45-1.09,20.45S58,278.18,56.74,293.67Z" style="fill:#fff;opacity:0.30000000000000004"></path><path d="M250.72,49.84s-21.69.2-24.4,6,0,4.19-3,7.94-21.94,13.57-24.84,17.84S226.6,89.31,228,88.09s-1.67-.85,2.73-3.46,16.62-3.26,21.18-6.68.81.17-6.33-2.65-7.44-9.16-5.59-13.78,5.65-3.5,8.9-7S250.72,49.84,250.72,49.84Z" style="fill:#850000"></path><path d="M291.25,60.76S276.12,54.43,268,65.33c0,0,6.32.31,9.61,3.84C277.59,69.17,284.73,63.1,291.25,60.76Z" style="fill:#850000"></path><path d="M275.1,39.12s-9.76,8.21-6.83,8.65,7.83-4.58,7.83-4.58Z" style="fill:#850000"></path><path d="M178.6,404c-4.18-2.09-9.4-5.22-14.62-5.22H153c-4.18,0-8.36-3.13-8.36-3.13s-3.13,4.7,1.05,9.92,10.8,6.26,12.18,9.39-.17,6.79-.17,6.79-8.36,3.66-9.92,0-7.83-3.13-7.83-3.13l-4.7,4.76-8.36-4.79c-1.56,1.59,6.79,7.86,6.79,9.95s-1,12,1,14.09,11,10,21.42,11,19.78-2.73,23.48-5.8c6.28-5.22,8.74-15.59,9.06-19.78C189.44,418.43,182.78,406.13,178.6,404Zm-20.07,5.33c-3-.28-6.32-5.5-6.32-5.5l10.45,2.2,1.92,4.53A32.5,32.5,0,0,0,158.53,409.37Z" style="fill:#fff;opacity:0.5"></path><path d="M180.8,427.66c-1.4-5.1-5-9.41-10.66-9.68-1.56,0-2.71.59-2.66,1.85s.75,2.43.86,3.69a5.91,5.91,0,0,1-2.8,5,39.58,39.58,0,0,1-5.36,2.71,8.26,8.26,0,0,0-4.26,4.05,6.17,6.17,0,0,0,.85,5.61,10,10,0,0,0,4.66,3.5A14.92,14.92,0,0,0,176.34,442,14.36,14.36,0,0,0,180.8,427.66Z" style="fill:#fff"></path><path d="M117.86,405.55s4,10.92,6.34,10.06,7.25-2.78,7.25-2.78l4.13,2.78a9.64,9.64,0,0,0-3.79-4.73c-2.63-1.42-8.18.46-8.18.46Z" style="fill:#fff;opacity:0.5"></path><path d="M101.79,107.61c-.13-.68-.65-1.13-1.09-.93h0a1.68,1.68,0,0,0-.58,1.71c.14.68.66,1.11,1.1.9A1.66,1.66,0,0,0,101.79,107.61Z" style="fill:#850000"></path><path d="M240,112.2c-.13-.68-.65-1.13-1.09-.93h0a1.69,1.69,0,0,0-.58,1.71c.14.68.66,1.11,1.1.9A1.66,1.66,0,0,0,240,112.2Z" style="fill:#850000"></path><path d="M151.1,162.22c-.13-.68-.64-1.13-1.09-.93h0a1.68,1.68,0,0,0-.57,1.71c.13.68.65,1.11,1.09.9A1.63,1.63,0,0,0,151.1,162.22Z" style="fill:#850000"></path><path d="M174.61,361.12c-.12-.68-.64-1.13-1.08-.93h0a1.68,1.68,0,0,0-.58,1.71c.14.68.66,1.11,1.1.9A1.64,1.64,0,0,0,174.61,361.12Z" style="fill:#850000"></path><path d="M82.64,434.31c-.12-.69-.64-1.13-1.08-.94h0a1.68,1.68,0,0,0-.58,1.71c.14.68.66,1.11,1.1.91A1.66,1.66,0,0,0,82.64,434.31Z" style="fill:#fff"></path><path d="M261.18,38.34c-.13-.69-.65-1.13-1.09-.94h0a1.69,1.69,0,0,0-.58,1.71c.14.68.66,1.11,1.1.91A1.68,1.68,0,0,0,261.18,38.34Z" style="fill:#850000"></path><path d="M192.82,51.3c-.13-.68-.65-1.13-1.09-.94l0,0a1.67,1.67,0,0,0-.58,1.7c.14.69.66,1.12,1.1.91A1.66,1.66,0,0,0,192.82,51.3Z" style="fill:#850000"></path><path d="M120.47,92.77v.08a.28.28,0,0,0,0,.15.27.27,0,0,0,.19.19.28.28,0,0,0,.15,0l.1,0a.32.32,0,0,0,.16-.09l.06-.08a.32.32,0,0,0,0-.19v-.08a.27.27,0,0,0,0-.15.28.28,0,0,0-.08-.12.36.36,0,0,0-.12-.08.32.32,0,0,0-.14,0l-.1,0a.4.4,0,0,0-.17.09l-.06.08a.41.41,0,0,0,0,.19Z" style="fill:#850000"></path><path d="M182.45,88.26v.08a.4.4,0,0,0,0,.15.42.42,0,0,0,.08.12l.12.08a.37.37,0,0,0,.15,0l.1,0a.37.37,0,0,0,.16-.09l.06-.08a.41.41,0,0,0,0-.19v-.08a.4.4,0,0,0,0-.15.42.42,0,0,0-.08-.12.24.24,0,0,0-.12-.07.23.23,0,0,0-.14,0l-.1,0a.35.35,0,0,0-.17.09l-.06.08a.41.41,0,0,0-.05.19Z" style="fill:#850000"></path><path d="M73.92,429.14v.39a.32.32,0,0,0,0,.14.37.37,0,0,0,.2.2.32.32,0,0,0,.14,0h.1a.37.37,0,0,0,.17-.1.36.36,0,0,0,.11-.26v-.39a.37.37,0,0,0,0-.15.37.37,0,0,0-.2-.2.37.37,0,0,0-.15,0h-.1a.39.39,0,0,0-.16.1.37.37,0,0,0-.11.27Z" style="fill:#850000"></path><path d="M109.24,292.47a11.91,11.91,0,0,0-1.68-7.7,23.36,23.36,0,0,1-2.29-16.7c1.59-5.62,3.15-4.78,3.15-4.78s.46,6.64,3.52,11.14,4.34,8.39,2.19,13.55S109.24,292.47,109.24,292.47Z" style="fill:#850000"></path><path d="M162.82,354.58s-8.41-1.95-13.78-12.3-7.27-28.18-8-30.47S137,300.38,137,300.38s15.43,11.17,19.39,21.66S162.82,354.58,162.82,354.58Z" style="fill:#850000"></path><path d="M22.87,369.78c-.26-.64-.86-1-1.25-.7l0,0a1.69,1.69,0,0,0-.22,1.79c.27.64.87,1,1.26.67A1.65,1.65,0,0,0,22.87,369.78Z" style="fill:#850000"></path><path d="M14.29,335.43l.08.38a.24.24,0,0,0,.07.13.22.22,0,0,0,.1.09.24.24,0,0,0,.14.05.26.26,0,0,0,.15,0l.09,0a.27.27,0,0,0,.13-.13l0-.09a.34.34,0,0,0,0-.2c0-.13-.05-.25-.08-.38a.31.31,0,0,0-.06-.13.52.52,0,0,0-.11-.1.33.33,0,0,0-.14,0,.26.26,0,0,0-.15,0l-.09,0a.44.44,0,0,0-.13.14l0,.09a.34.34,0,0,0,0,.2Z" style="fill:#850000"></path></g></svg>